<?xml version="1.0" standalone="no"?>
<!DOCTYPE svg PUBLIC "-//W3C//DTD SVG 20010904//EN"
 "http://www.w3.org/TR/2001/REC-SVG-20010904/DTD/svg10.dtd">
<svg version="1.0" xmlns="http://www.w3.org/2000/svg"
 width="820.000000pt" height="679.000000pt" viewBox="0 0 820.000000 679.000000"
 preserveAspectRatio="xMidYMid meet">
<metadata>
Created by potrace 1.16, written by Peter Selinger 2001-2019
</metadata>
<g transform="translate(0.000000,679.000000) scale(0.100000,-0.100000)"
fill="#000000" stroke="none">
<path d="M4436 6275 c-8 -38 -23 -72 -60 -140 -25 -46 -113 -235 -126 -270
-36 -98 -54 -145 -66 -171 -7 -17 -19 -49 -26 -70 l-13 -39 -57 3 c-31 2 -66
-2 -78 -8 -29 -15 -320 -22 -337 -8 -7 6 -11 14 -8 18 9 14 -16 23 -28 11 -6
-6 -14 -11 -18 -11 -11 0 -18 109 -8 142 6 23 5 34 -4 40 -8 5 -11 33 -9 95 2
65 0 84 -8 73 -11 -16 -8 4 11 80 5 19 8 49 8 65 -1 24 -3 25 -6 8 -2 -13 -8
-23 -12 -23 -5 0 -14 -21 -21 -47 -7 -27 -21 -60 -31 -74 -10 -14 -31 -60 -48
-102 -17 -42 -35 -85 -40 -94 -11 -23 -22 -49 -61 -144 -32 -80 -43 -88 -118
-93 -12 -1 -29 -12 -38 -24 -16 -24 -44 -28 -74 -12 -12 7 -27 5 -47 -5 -17
-8 -57 -18 -90 -21 -59 -6 -60 -6 -83 26 -19 27 -23 45 -22 89 3 87 6 109 15
104 4 -2 7 9 7 26 0 16 7 57 16 91 8 34 13 64 11 67 -3 2 -8 -11 -12 -29 -4
-18 -13 -40 -19 -48 -7 -8 -23 -40 -35 -70 -13 -30 -36 -83 -52 -116 -16 -34
-29 -67 -29 -73 0 -6 -4 -11 -10 -11 -5 0 -10 -8 -10 -18 0 -10 -5 -23 -10
-28 -9 -9 -28 -95 -71 -314 -25 -131 -38 -207 -38 -220 0 -21 38 61 39 83 0 9
4 17 8 17 4 0 16 24 26 53 23 67 61 150 93 207 22 36 27 41 33 26 5 -16 13
-11 50 33 35 41 49 51 66 47 13 -4 27 0 34 9 7 9 20 15 29 13 9 -1 33 4 54 11
28 10 41 10 51 1 14 -11 61 -5 81 10 6 4 34 5 63 3 51 -5 52 -6 52 -37 0 -17
-5 -60 -10 -95 -14 -97 -15 -294 -1 -299 6 -2 11 2 11 9 0 22 199 429 210 429
4 0 13 12 19 28 10 24 17 27 57 28 25 1 50 6 56 12 16 16 34 15 52 -4 14 -13
21 -14 52 -2 30 11 39 10 64 -4 25 -14 29 -14 43 0 13 12 37 15 113 13 53 -1
100 -4 104 -6 12 -8 22 -132 29 -372 7 -245 15 -285 43 -216 9 21 33 79 53
128 21 50 48 112 61 139 13 28 24 56 24 63 0 7 5 13 10 13 6 0 10 8 10 17 0 9
16 50 36 90 l37 74 41 -3 c34 -3 42 -7 44 -26 4 -25 20 -29 28 -8 3 7 31 22
62 31 54 17 56 17 67 0 5 -10 21 -30 33 -44 22 -24 30 -26 94 -24 72 2 108 -8
108 -30 0 -16 52 -47 78 -47 35 0 78 -20 63 -29 -8 -5 2 -10 28 -15 23 -3 41
-10 41 -15 0 -5 11 -12 25 -15 17 -4 27 -15 30 -34 3 -15 10 -43 15 -63 6 -20
10 -46 10 -57 0 -23 4 -21 -231 -67 -140 -27 -254 -67 -269 -96 -12 -22 2
-385 16 -398 5 -5 44 5 94 25 180 71 238 92 271 99 19 4 36 10 39 14 8 11 144
40 152 33 4 -4 11 -36 16 -72 8 -59 9 -62 15 -30 3 19 13 114 22 210 9 96 20
197 25 223 6 27 10 61 10 77 0 25 3 28 36 28 19 0 38 3 41 6 4 3 13 0 22 -8 9
-7 31 -16 50 -20 20 -4 50 -21 70 -42 70 -69 76 -73 91 -64 21 13 24 13 50
-10 13 -11 27 -20 32 -20 4 0 8 -5 8 -12 0 -6 11 -25 23 -42 48 -63 87 -262
87 -440 0 -132 13 -130 29 4 23 200 41 337 52 400 11 64 10 87 -21 475 -4 50
-7 75 -8 56 -1 -18 -13 -68 -26 -110 -33 -103 -48 -167 -55 -226 -4 -36 -11
-51 -23 -53 -12 -2 -19 5 -24 22 -7 29 -25 34 -44 11 -7 -8 -19 -15 -26 -15
-19 0 -83 37 -122 71 -17 16 -57 36 -87 44 -32 10 -62 26 -74 41 -10 13 -26
24 -35 24 -12 0 -16 11 -16 48 0 61 -9 92 -26 92 -8 0 -14 10 -14 23 -1 49
-30 305 -40 347 -6 25 -17 72 -24 105 -14 67 -11 72 -46 -70 -11 -44 -20 -94
-20 -111 0 -17 -11 -76 -24 -130 -13 -54 -27 -114 -31 -132 -8 -36 -49 -62
-69 -42 -5 5 -18 10 -28 10 -10 0 -58 16 -106 35 -58 24 -96 34 -114 30 -18
-4 -32 0 -45 13 -10 11 -28 22 -39 26 -12 4 -32 16 -45 27 -17 15 -30 18 -49
12 -74 -23 -161 3 -185 55 -15 34 -35 36 -35 3 0 -15 -2 -30 -5 -33 -3 -3 -33
22 -66 54 l-61 59 12 62 c21 110 32 161 41 187 4 14 13 59 19 100 6 41 22 119
36 172 14 54 24 113 22 130 l-4 33 -8 -40z"/>
<path d="M3294 4648 c-4 -35 -7 -92 -7 -128 l1 -65 -15 63 c-8 34 -18 62 -22
62 -4 0 -18 -42 -31 -92 -21 -89 -22 -96 -7 -153 15 -59 46 -165 62 -215 7
-24 6 -24 -19 5 -15 17 -34 47 -44 67 -28 61 -42 48 -43 -39 -1 -43 -1 -87 -1
-98 1 -17 0 -17 -4 -2 -3 9 -10 17 -16 17 -16 0 -4 -152 17 -223 9 -32 15 -61
12 -63 -6 -6 -57 46 -92 95 -29 40 -30 32 -10 -63 8 -38 13 -72 11 -74 -6 -5
-66 90 -66 104 0 7 -13 36 -28 65 -15 30 -36 77 -46 104 -25 66 -35 78 -52 64
-8 -6 -14 -17 -13 -23 0 -7 2 -6 6 2 10 26 21 10 28 -45 4 -32 13 -76 20 -98
8 -22 17 -62 21 -90 4 -27 13 -65 21 -83 20 -47 10 -50 -24 -8 -15 20 -32 36
-38 36 -11 0 -35 -46 -35 -67 0 -7 -5 -13 -11 -13 -7 0 -9 -12 -6 -32 5 -34
-23 -88 -45 -88 -23 0 -67 -64 -77 -112 -15 -67 -14 -128 4 -228 8 -47 15
-119 15 -161 0 -59 3 -78 15 -83 16 -6 21 -41 6 -50 -11 -7 -21 -70 -32 -206
-5 -63 -11 -136 -15 -161 -5 -39 -1 -55 25 -104 51 -94 41 -183 -35 -327 -19
-35 -10 -117 19 -178 12 -25 24 -47 27 -50 15 -13 48 -68 55 -89 6 -19 4 -23
-7 -19 -9 4 -22 -6 -34 -23 -11 -17 -28 -29 -40 -29 -12 0 -43 -21 -70 -46
-64 -60 -168 -128 -273 -176 -47 -22 -104 -53 -127 -69 -23 -16 -45 -29 -48
-29 -9 0 -124 -70 -138 -83 -15 -15 -198 -77 -228 -77 -11 0 -20 -4 -20 -9 0
-13 -124 -50 -207 -62 -41 -6 -86 -15 -100 -20 -13 -5 -41 -9 -61 -9 -44 0
-88 -25 -154 -88 -26 -25 -62 -55 -78 -66 -16 -12 -30 -24 -30 -28 0 -8 88
-38 115 -38 12 0 47 -9 77 -19 30 -10 127 -26 214 -35 88 -9 184 -21 214 -25
136 -22 373 -53 575 -76 121 -14 245 -30 275 -36 30 -6 165 -12 300 -14 175
-2 271 -8 334 -19 66 -13 91 -14 101 -6 41 34 207 -70 371 -230 27 -28 60 -50
71 -50 28 0 123 31 123 40 0 4 21 15 48 25 26 10 52 22 59 27 7 6 27 14 45 18
97 24 186 54 213 70 16 10 59 26 95 35 120 29 128 32 159 54 54 39 85 42 256
26 122 -11 174 -12 220 -4 95 17 480 23 545 9 30 -7 58 -17 62 -23 4 -7 42 -6
125 2 124 14 197 33 224 57 9 8 40 17 70 21 30 3 60 11 68 17 9 7 73 11 175
12 89 0 168 4 176 9 8 6 100 10 204 11 l190 2 23 26 c39 45 30 75 -39 131 -58
47 -159 101 -227 121 -31 9 -83 27 -116 41 -43 17 -84 25 -144 28 -46 2 -87 8
-90 14 -4 5 -40 15 -81 21 -179 28 -359 90 -439 151 -25 20 -14 26 17 10 21
-12 133 -55 222 -86 36 -13 73 -26 83 -30 9 -4 17 -3 17 2 0 11 -57 38 -110
51 -77 20 -270 101 -270 114 0 4 -26 16 -57 28 -32 12 -62 25 -68 30 -5 4 -41
17 -79 29 -37 12 -85 34 -105 50 -58 45 -82 56 -92 40 -8 -13 -13 -5 -10 14 0
4 -3 7 -8 7 -4 0 -24 13 -42 30 -19 16 -59 43 -89 60 -51 27 -91 60 -177 141
-21 20 -39 50 -49 85 -8 30 -18 54 -21 54 -3 0 -3 -26 0 -59 6 -70 -5 -96 -29
-66 -9 12 -15 41 -15 75 1 30 -2 82 -5 115 -7 70 6 200 43 415 33 192 35 241
8 270 -11 12 -18 32 -17 44 9 55 48 147 107 251 36 63 65 117 65 120 0 3 5 11
10 18 6 7 24 31 40 54 24 35 38 44 70 49 25 4 40 12 40 21 0 8 -5 11 -10 8
-19 -12 -49 5 -43 23 8 24 54 72 69 72 6 0 15 10 19 23 6 19 8 19 12 5 6 -22
36 -23 68 -2 20 13 25 25 25 61 0 27 -4 42 -10 38 -5 -3 -10 -17 -10 -30 0
-23 -25 -45 -49 -45 -6 0 -21 16 -33 35 -27 41 -30 42 -44 12 -6 -12 -21 -40
-32 -62 -12 -22 -29 -58 -38 -80 -9 -22 -32 -61 -51 -87 -18 -26 -33 -50 -33
-53 0 -3 -18 -35 -40 -71 -22 -36 -40 -68 -40 -71 0 -4 -56 -78 -75 -98 -5 -6
-50 -41 -100 -78 -49 -38 -106 -80 -125 -95 -19 -15 -55 -40 -80 -56 -25 -15
-52 -35 -60 -43 -20 -19 -99 -72 -185 -124 -38 -23 -93 -57 -120 -76 -102 -68
-221 -96 -314 -73 -36 8 -51 17 -51 28 0 15 -2 15 -11 2 -8 -11 -9 -4 -5 28 5
33 3 42 -8 42 -16 0 -17 1 -45 125 -22 97 -38 279 -23 257 7 -11 10 -11 15 2
4 9 2 16 -3 16 -6 0 -10 8 -11 18 0 15 -1 14 -8 -3 -5 -12 -10 12 -15 70 -6
85 -5 90 16 108 23 18 75 18 148 1 l25 -6 -26 15 c-48 26 -149 44 -149 25 0
-4 -4 -8 -8 -8 -11 0 -32 92 -32 141 0 46 37 93 65 83 11 -5 18 0 22 15 3 12
13 21 24 21 11 0 19 5 19 12 0 9 3 9 12 0 7 -7 18 -12 26 -12 10 0 6 9 -12 26
-14 15 -26 33 -26 40 0 8 -11 14 -25 14 -22 0 -25 4 -25 33 0 40 28 127 41
127 5 0 9 6 9 14 0 8 7 16 15 20 8 3 15 12 15 19 0 8 16 29 35 48 19 19 35 38
35 43 0 5 16 25 37 43 32 30 35 36 25 58 -13 28 -32 34 -32 10 0 -8 -7 -15
-15 -15 -8 0 -15 -4 -15 -9 0 -5 -8 -12 -17 -15 -10 -3 -34 -21 -53 -39 -46
-44 -80 -63 -80 -45 0 7 -3 23 -6 35 -4 16 4 30 35 60 23 21 41 45 41 53 0 9
-26 67 -58 130 -33 63 -78 174 -101 245 -24 72 -51 153 -61 180 l-19 50 0 -65
c0 -36 4 -83 9 -105 6 -22 21 -92 34 -155 13 -63 29 -127 34 -142 16 -39 -6
-28 -38 20 -14 20 -30 43 -36 49 -7 7 -31 51 -54 99 -24 51 -45 83 -51 77 -10
-10 4 -112 26 -187 16 -52 16 -59 -1 -48 -14 10 -148 288 -169 352 -10 30 -26
78 -36 105 -10 28 -24 73 -31 100 -13 47 -15 50 -50 53 l-36 3 -8 -63z m1636
-1794 c-16 -46 -34 -77 -59 -100 -30 -29 -133 -86 -206 -114 -11 -4 -33 -13
-48 -19 -116 -46 -214 -67 -144 -30 20 11 37 24 37 29 0 6 5 10 11 10 8 0 79
50 99 70 3 3 25 18 49 35 24 16 45 35 48 42 3 7 11 13 17 13 12 0 134 82 145
97 9 12 65 42 69 38 2 -2 -6 -34 -18 -71z m-2050 -31 c0 -6 3 -13 8 -15 23
-10 82 -109 82 -138 0 -25 3 -30 18 -26 11 4 30 -5 51 -25 19 -16 45 -37 58
-46 19 -13 24 -23 21 -52 -2 -28 0 -35 12 -32 39 9 91 4 105 -9 18 -19 29
-100 16 -120 -9 -13 -12 -13 -23 1 -9 11 -21 14 -43 8 -28 -6 -28 -7 -8 -14
12 -4 24 -13 27 -21 3 -8 12 -14 21 -14 8 0 15 -5 15 -11 0 -14 -70 -79 -85
-79 -13 0 -80 34 -100 50 -20 17 -19 56 1 64 10 4 14 14 11 26 -5 21 16 29 28
10 9 -15 25 -12 25 5 0 9 -7 18 -15 21 -8 4 -15 16 -15 29 0 18 -7 24 -32 29
-43 9 -105 92 -100 133 4 24 2 25 -12 14 -18 -15 -22 -61 -6 -61 6 0 10 -9 10
-19 0 -11 -4 -23 -10 -26 -5 -3 -10 3 -10 14 0 12 -5 21 -11 21 -6 0 -8 -9 -4
-20 4 -14 2 -20 -9 -20 -18 0 -59 74 -54 98 3 13 9 8 21 -15 10 -18 24 -33 33
-33 12 0 10 5 -6 22 -24 26 -29 58 -5 38 10 -8 15 -9 15 -2 0 13 -41 95 -51
102 -14 11 -31 123 -22 142 6 11 43 -15 43 -29z m416 -911 l7 -184 -29 4 -29
3 0 178 c0 147 3 179 15 187 8 5 18 6 22 2 4 -4 10 -89 14 -190z m250 -126
c14 -37 -83 -164 -127 -168 -42 -3 -53 -4 -87 -12 -50 -12 -125 10 -156 45
-14 16 -24 29 -21 29 3 0 32 -9 66 -21 97 -34 156 -15 227 73 53 64 87 83 98
54z"/>
<path d="M4349 4599 c-6 -48 9 -281 19 -291 4 -4 24 4 43 18 l36 25 -44 132
c-24 73 -45 137 -47 142 -1 6 -5 -6 -7 -26z"/>
<path d="M4700 4193 c0 -4 10 -17 22 -30 l21 -23 -59 -1 c-83 0 -149 -13 -167
-31 -8 -8 -29 -21 -46 -28 -54 -22 -33 -28 35 -10 52 14 73 16 97 7 42 -14 67
-38 67 -62 0 -48 172 -67 229 -25 27 18 31 19 62 4 68 -31 68 -31 85 -88 13
-43 31 -44 26 -1 -2 19 -8 38 -13 41 -5 3 -9 14 -9 24 0 10 -11 32 -25 48 -14
17 -25 34 -25 38 -1 10 -76 64 -89 64 -5 0 -12 -7 -15 -15 -4 -12 -10 -14 -25
-5 -11 5 -29 10 -41 10 -18 0 -51 25 -106 78 -14 13 -24 16 -24 5z"/>
</g>
</svg>
